<svg width="18" height="16" viewBox="0 0 18 16" fill="none" xmlns="http://www.w3.org/2000/svg">
<path fill-rule="evenodd" clip-rule="evenodd" d="M17.3265 5.83232L11.9987 5.05825L9.61694 0.230548C9.54914 0.115239 9.42536 0.0444336 9.2916 0.0444336C9.15783 0.0444336 9.03406 0.115239 8.96626 0.230548L6.58343 5.05716L1.2542 5.83232C1.1175 5.85205 1.00384 5.94768 0.961023 6.07899C0.918201 6.21031 0.953633 6.35455 1.05243 6.45107L4.90863 10.2093L3.99847 15.5157C3.97525 15.6517 4.03119 15.7891 4.14282 15.8703C4.25445 15.9514 4.40245 15.9622 4.52468 15.8982L9.29033 13.393L14.056 15.8971C14.1782 15.9612 14.3262 15.9503 14.4378 15.8692C14.5495 15.7881 14.6054 15.6506 14.5822 15.5146L13.672 10.2093L17.5282 6.45107C17.627 6.3546 17.6625 6.21042 17.6197 6.07913C17.577 5.94783 17.4635 5.85217 17.3268 5.83232H17.3265Z" fill="#F5A623"/>
</svg>
