<svg width="36" height="34" viewBox="0 0 36 34" fill="none" xmlns="http://www.w3.org/2000/svg">
<path opacity="0.5" fill-rule="evenodd" clip-rule="evenodd" d="M34.0709 20.945C32.1809 18.8898 28.9135 19.1747 27.3913 21.5061C25.866 19.1708 22.5947 18.8922 20.707 20.9496C19.1113 22.6894 19.2937 25.4238 20.9489 27.1064L26.8317 33.0856C27.1385 33.397 27.641 33.397 27.9477 33.0856L33.8322 27.1064C35.4905 25.4223 35.6705 22.6839 34.0709 20.945Z" fill="#258AFF"/>
<path fill-rule="evenodd" clip-rule="evenodd" d="M14.087 20.3478H6.26088C5.8281 20.3478 5.47827 19.9972 5.47827 19.5652C5.47827 19.1332 5.8281 18.7826 6.26088 18.7826H14.087C14.5197 18.7826 14.8696 19.1332 14.8696 19.5652C14.8696 19.9972 14.5197 20.3478 14.087 20.3478Z" fill="#258AFF"/>
<path fill-rule="evenodd" clip-rule="evenodd" d="M3.13043 0H32.8696C34.596 0 36 1.404 36 3.13043V17.2174H34.4348V13.3043H1.56522V23.4783C1.56522 24.3415 2.26722 25.0435 3.13043 25.0435H15.6522V26.6087H3.13043C1.404 26.6087 0 25.2047 0 23.4783V3.13043C0 1.404 1.404 0 3.13043 0ZM1.56522 7.04348H34.4348V3.13043C34.4348 2.26722 33.7328 1.56522 32.8696 1.56522H3.13043C2.26722 1.56522 1.56522 2.26722 1.56522 3.13043V7.04348Z" fill="#258AFF"/>
</svg>
