<svg width="36" height="36" viewBox="0 0 36 36" fill="none" xmlns="http://www.w3.org/2000/svg">
<path opacity="0.5" fill-rule="evenodd" clip-rule="evenodd" d="M8.03894 4.12591L9.14555 5.23252C11.4938 2.8841 14.6789 1.56476 18 1.56476C21.3211 1.56476 24.5061 2.8841 26.8544 5.23252L27.961 4.12591C25.3192 1.48406 21.7361 -0.00012207 18 -0.00012207C14.2639 -0.00012207 10.6808 1.48406 8.03894 4.12591Z" fill="#258AFF"/>
<path opacity="0.5" fill-rule="evenodd" clip-rule="evenodd" d="M18 6.26087C15.9239 6.25814 13.9323 7.08311 12.4662 8.55313L13.5728 9.65974C14.7469 8.48553 16.3395 7.82586 18 7.82586C19.6606 7.82586 21.2531 8.48553 22.4272 9.65974L23.5338 8.55313C22.0677 7.08311 20.0762 6.25814 18 6.26087Z" fill="#258AFF"/>
<path fill-rule="evenodd" clip-rule="evenodd" d="M23.4783 28.1739V25.6077L21.6657 25.0028C21.458 24.9332 21.289 24.7797 21.1998 24.5796C21.1105 24.3795 21.1092 24.1512 21.1962 23.9502L23.4783 18.6832V17.2174C23.4681 14.1031 24.8895 11.1568 27.3334 9.22643C29.7773 7.29605 32.9727 6.59565 36 7.32678V35.2174H29.7391V31.3043H26.6087C24.8798 31.3043 23.4783 29.9028 23.4783 28.1739Z" fill="#258AFF"/>
<path fill-rule="evenodd" clip-rule="evenodd" d="M12.5217 28.1739V25.6077L14.3343 25.0028C14.542 24.9332 14.711 24.7797 14.8002 24.5796C14.8895 24.3795 14.8908 24.1512 14.8038 23.9502L12.5217 18.6832V17.2174C12.5217 11.5985 7.96672 7.04348 2.34783 7.04348C1.55687 7.04644 0.768954 7.14151 0 7.32678V35.2174H6.26087V31.3043H9.3913C11.1202 31.3043 12.5217 29.9028 12.5217 28.1739Z" fill="#258AFF"/>
<path opacity="0.5" fill-rule="evenodd" clip-rule="evenodd" d="M18 15.6522C18.8644 15.6522 19.5652 14.9514 19.5652 14.087C19.5652 13.2225 18.8644 12.5217 18 12.5217C17.1355 12.5217 16.4348 13.2225 16.4348 14.087C16.4348 14.9514 17.1355 15.6522 18 15.6522Z" fill="#258AFF"/>
</svg>
